<?xml version="1.0" encoding="UTF-8"?>
<svg id="Camada_1" xmlns="http://www.w3.org/2000/svg" version="1.1" viewBox="0 0 1200 800">
  <!-- Generator: Adobe Illustrator 30.0.0, SVG Export Plug-In . SVG Version: 2.1.1 Build 123)  -->
  <defs>
    <style>
      .st0 {
        fill: #fff;
      }

      .st0, .st1 {
        stroke: #fff;
        stroke-miterlimit: 10;
      }

      .st1 {
        fill: none;
      }
    </style>
  </defs>
  <path class="st0" d="M1032.62,406.17c0-217.51-185.35-393.83-413.98-393.83S204.65,188.66,204.65,406.17c0,196.57,151.39,359.5,349.3,389.05v-275.2h-105.11v-113.84h105.11v-86.77c0-98.7,61.8-153.22,156.37-153.22,45.29,0,92.67,7.69,92.67,7.69v96.92h-52.2c-51.43,0-67.46,30.36-67.46,61.5v73.88h114.82l-18.35,113.84h-96.46v275.2c197.91-29.54,349.3-192.47,349.3-389.05"/>
  <path class="st1" d="M779.78,520.01l18.35-113.84h-114.82v-73.88c0-31.14,16.04-61.5,67.46-61.5h52.2v-96.92s-47.38-7.69-92.67-7.69c-94.56,0-156.37,54.52-156.37,153.22v86.77h-105.11v113.84h105.11v275.2c21.4,3.19,43.03,4.79,64.68,4.78,22.01,0,43.61-1.64,64.68-4.78v-275.2h96.46"/>
</svg>