<?xml version="1.0" encoding="UTF-8"?>
<svg id="Camada_1" xmlns="http://www.w3.org/2000/svg" version="1.1" viewBox="0 0 384 384">
  <!-- Generator: Adobe Illustrator 30.0.0, SVG Export Plug-In . SVG Version: 2.1.1 Build 123)  -->
  <defs>
    <style>
      .st0 {
        fill: #fff;
        stroke: #000;
        stroke-miterlimit: 10;
      }
    </style>
  </defs>
  <path class="st0" d="M177.6,19.72c156.53-10.94,247.65,171.99,142.29,288.54-87.24,96.51-247.37,63.88-290.65-58.12C-8.32,144.29,65.21,27.58,177.6,19.72ZM179.85,39.97C62.95,47.86-.08,183.79,67.21,279.67c69.81,99.47,224.69,80.42,267.31-33.28,39.67-105.85-42.67-213.97-154.67-206.42Z"/>
  <path class="st0" d="M139.35,210.22c33.58,1.47,70.05-2.71,103.31-.25,29.8,2.21,59.19,27.57,66.68,56.3-20.09,31.5-52.71,54.51-89.57,61.87-56.94,11.37-114.61-13.38-145.21-62.26,8.93-29.21,34.48-51.26,64.8-55.66Z"/>
  <path class="st0" d="M184.35,60.22c56.77-5.3,95.94,54.22,67.03,103.78-23.96,41.06-82.26,45.19-112.61,8.85-34.72-41.57-8.42-107.59,45.58-112.63Z"/>
</svg>